<?xml version="1.0" encoding="UTF-8" standalone="no"?>
<!-- Created with Inkscape (http://www.inkscape.org/) -->

<svg
   xmlns:dc="http://purl.org/dc/elements/1.1/"
   xmlns:cc="http://creativecommons.org/ns#"
   xmlns:rdf="http://www.w3.org/1999/02/22-rdf-syntax-ns#"
   xmlns:svg="http://www.w3.org/2000/svg"
   xmlns="http://www.w3.org/2000/svg"
   xmlns:xlink="http://www.w3.org/1999/xlink"
   xmlns:sodipodi="http://sodipodi.sourceforge.net/DTD/sodipodi-0.dtd"
   xmlns:inkscape="http://www.inkscape.org/namespaces/inkscape"
   width="150"
   height="150"
   viewBox="0 0 150.00001 150.00001"
   id="svg2"
   version="1.1"
   inkscape:version="0.91 r"
   sodipodi:docname="subscribe.svg">
  <defs
     id="defs4">
    <linearGradient
       id="RSSg"
       y2="225.94"
       x2="225.94"
       y1="30.059999"
       x1="30.059999"
       gradientUnits="userSpaceOnUse"
       gradientTransform="translate(288.57147,96.428583)">
      <stop
         id="stop8072"
         stop-color="#E3702D"
         offset="0.0" />
      <stop
         id="stop8074"
         stop-color="#EA7D31"
         offset="0.1071" />
      <stop
         id="stop8076"
         stop-color="#F69537"
         offset="0.3503" />
      <stop
         id="stop8078"
         stop-color="#FB9E3A"
         offset="0.5" />
      <stop
         id="stop8080"
         stop-color="#EA7C31"
         offset="0.7016" />
      <stop
         id="stop8082"
         stop-color="#DE642B"
         offset="0.8866" />
      <stop
         id="stop8084"
         stop-color="#D95B29"
         offset="1.0" />
    </linearGradient>
    <linearGradient
       inkscape:collect="always"
       xlink:href="#RSSg"
       id="linearGradient8161"
       x1="-19.571436"
       y1="-143.78575"
       x2="155.42856"
       y2="-143.78575"
       gradientUnits="userSpaceOnUse" />
    <linearGradient
       inkscape:collect="always"
       xlink:href="#RSSg"
       id="linearGradient8182"
       gradientUnits="userSpaceOnUse"
       x1="-19.571436"
       y1="-143.78575"
       x2="155.42856"
       y2="-143.78575" />
    <linearGradient
       inkscape:collect="always"
       xlink:href="#RSSg"
       id="linearGradient8184"
       gradientUnits="userSpaceOnUse"
       x1="-19.571436"
       y1="-143.78575"
       x2="155.42856"
       y2="-143.78575" />
    <linearGradient
       inkscape:collect="always"
       xlink:href="#RSSg"
       id="linearGradient8186"
       gradientUnits="userSpaceOnUse"
       x1="-19.571436"
       y1="-143.78575"
       x2="155.42856"
       y2="-143.78575" />
  </defs>
  <sodipodi:namedview
     id="base"
     pagecolor="#ffffff"
     bordercolor="#666666"
     borderopacity="1.0"
     inkscape:pageopacity="0.0"
     inkscape:pageshadow="2"
     inkscape:zoom="1.979899"
     inkscape:cx="127.0723"
     inkscape:cy="55.829962"
     inkscape:document-units="px"
     inkscape:current-layer="g8110"
     showgrid="false"
     units="px"
     showguides="true"
     inkscape:guide-bbox="true"
     inkscape:window-width="1920"
     inkscape:window-height="1028"
     inkscape:window-x="1280"
     inkscape:window-y="0"
     inkscape:window-maximized="1">
    <sodipodi:guide
       position="82.500006,150.00001"
       orientation="0,1"
       id="guide8192" />
    <sodipodi:guide
       position="0,132.14287"
       orientation="1,0"
       id="guide8194" />
    <sodipodi:guide
       position="119.95562,0"
       orientation="0,1"
       id="guide8196" />
    <sodipodi:guide
       position="150.00766,86.873125"
       orientation="1,0"
       id="guide8198" />
  </sodipodi:namedview>
  <metadata
     id="metadata7">
    <rdf:RDF>
      <cc:Work
         rdf:about="">
        <dc:format>image/svg+xml</dc:format>
        <dc:type
           rdf:resource="http://purl.org/dc/dcmitype/StillImage" />
        <dc:title />
      </cc:Work>
    </rdf:RDF>
  </metadata>
  <g
     inkscape:label="Ebene 1"
     inkscape:groupmode="layer"
     id="layer1"
     transform="translate(0,-902.36214)">
    <g
       id="g8110"
       transform="matrix(0.5,0,0,0.5,15.772601,913.79569)">
      <rect
         style="fill:#f99a39;fill-opacity:1;stroke:#000000;stroke-width:0.90000011;stroke-linecap:round;stroke-linejoin:round;stroke-miterlimit:4;stroke-dasharray:none;stroke-opacity:1;stroke-dashoffset:0"
         id="rect8169"
         width="467.22586"
         height="77.157738"
         x="-247.83054"
         y="90.126091"
         rx="0"
         ry="0"
         transform="matrix(0.70710678,-0.70710678,0.70710678,0.70710678,0,0)" />
      <g
         id="g8150"
         style="fill:url(#linearGradient8161);fill-opacity:1;stroke:#000000;stroke-width:2.00000024;stroke-linejoin:round;stroke-miterlimit:4;stroke-dasharray:none;stroke-opacity:1"
         transform="matrix(0.42892444,0.63132617,-0.63132617,0.42892444,63.988281,187.43778)">
        <circle
           style="fill:url(#linearGradient8182);fill-opacity:1;stroke:#000000;stroke-width:2.00000024;stroke-linejoin:round;stroke-miterlimit:4;stroke-dasharray:none;stroke-opacity:1"
           cx="4.4285636"
           cy="-80.285744"
           r="24"
           id="circle8092" />
        <path
           style="fill:url(#linearGradient8184);fill-opacity:1;stroke:#000000;stroke-width:2.00000024;stroke-linejoin:round;stroke-miterlimit:4;stroke-dasharray:none;stroke-opacity:1"
           inkscape:connector-curvature="0"
           d="m 96.428564,-56.285747 -34,0 a 82,82 0 0 0 -82,-82.000003 l 0,-34 a 116,116 0 0 1 116,116.000003 z"
           id="path8094" />
        <path
           style="fill:url(#linearGradient8186);fill-opacity:1;stroke:#000000;stroke-width:2.00000024;stroke-linejoin:round;stroke-miterlimit:4;stroke-dasharray:none;stroke-opacity:1"
           inkscape:connector-curvature="0"
           d="M 120.42856,-56.285747 A 140,140 0 0 0 -19.571436,-196.28575 l 0,-35 A 175,175 0 0 1 155.42856,-56.285747 Z"
           id="path8096" />
      </g>
      <g
         transform="matrix(0.70710678,-0.70710678,0.70710678,0.70710678,0,0)"
         style="font-style:normal;font-variant:normal;font-weight:normal;font-stretch:normal;font-size:69.17597961px;line-height:125%;font-family:Lobster;-inkscape-font-specification:Lobster;letter-spacing:0px;word-spacing:0px;fill:#000000;fill-opacity:1;stroke:none;stroke-width:1px;stroke-linecap:butt;stroke-linejoin:miter;stroke-opacity:1"
         id="text8188">
        <path
           d="m -130.81351,151.71118 5.30304,-25.09656 q -2.63463,-1.21598 -4.83016,-1.75642 -2.16175,-0.54044 -4.42483,-0.7431 -1.95908,4.22217 -3.61417,8.68077 -1.62132,4.45861 -2.8373,8.68078 -1.18221,4.18839 -1.85775,7.87012 -0.67555,3.68173 -0.67555,6.38391 0,1.65509 0.27022,2.49953 0.30399,0.87821 0.67554,1.35109 -1.38487,0 -3.00618,-0.13511 -1.58753,-0.13511 -3.00618,-0.84443 -1.38487,-0.67555 -2.33064,-2.16175 -0.91198,-1.4862 -0.91198,-4.18839 0,-2.29686 0.70932,-5.50571 0.7431,-3.20884 2.09419,-6.89057 1.3511,-3.71551 3.20885,-7.73501 1.85775,-4.05328 4.15461,-8.00523 -3.2764,0.20266 -5.37059,1.01332 -2.06042,0.77688 -2.73597,2.56708 0.27022,0 0.57422,0.70932 0.33777,0.67555 0.33777,1.45243 0,1.24976 -1.14843,1.99286 -1.11465,0.70932 -2.73596,0.70932 -0.91199,0 -1.68887,-0.23644 -0.77688,-0.27022 -1.35109,-0.7431 -0.57422,-0.50666 -0.91199,-1.24976 -0.33777,-0.77688 -0.33777,-1.7902 0,-1.75642 1.04709,-3.31018 1.08088,-1.55376 2.97241,-2.70218 1.89153,-1.14843 4.45861,-1.82398 2.60085,-0.67555 5.64081,-0.67555 1.41865,0 3.61418,0.20267 2.63463,-4.15462 5.57326,-7.83634 2.93862,-3.71551 6.04614,-6.48525 3.10751,-2.80352 6.24881,-4.42483 3.14129,-1.655093 6.18125,-1.655093 1.21598,0 2.70218,0.202663 1.51998,0.20266 2.76975,0.77688 l -10.84253,50.90244 -9.96431,0 z m 9.96431,-46.98427 q -1.55376,0.84443 -3.17507,2.43197 -1.58753,1.55376 -3.17507,3.71551 -1.55375,2.12797 -3.10751,4.7626 -1.55376,2.60085 -3.00618,5.5057 2.09419,0.40533 4.25594,1.01332 2.16175,0.57422 4.18839,1.38488 l 4.0195,-18.81398 z"
           style=""
           id="path8090" />
        <path
           d="m -104.26453,104.65936 10.234536,-1.38488 -3.310179,15.57136 q 1.047098,-0.64177 1.857754,-1.01332 0.844433,-0.40533 1.51998,-0.608 0.675546,-0.20266 1.215984,-0.23644 0.574214,-0.0675 1.080874,-0.0675 1.823976,0 3.310179,0.60799 1.51998,0.60799 2.600855,2.02664 1.080874,1.38487 1.655089,3.64795 0.607992,2.26308 0.607992,5.53948 0,2.02664 -0.405328,4.55994 -0.371551,2.49953 -1.249761,5.10038 -0.878211,2.60086 -2.330636,5.0666 -1.452426,2.46575 -3.54662,4.39106 -2.094195,1.9253 -4.931491,3.10751 -2.837296,1.14843 -6.519028,1.14843 -4.79638,0 -7.22835,-2.33064 -2.43196,-2.33063 -2.43196,-6.51902 0,-0.97954 0.10133,-1.95909 0.10133,-1.01332 0.37155,-1.99286 l 7.39723,-34.65554 z m 2.22931,35.97286 q -0.20267,0.87821 -0.20267,1.58753 0,3.20885 3.647956,3.20885 1.114652,0 2.161749,-0.7431 1.047098,-0.77688 1.925308,-2.02664 0.911988,-1.28354 1.65509,-2.97241 0.743101,-1.72264 1.249761,-3.5804 0.540437,-1.89153 0.810656,-3.85061 0.303996,-1.95909 0.303996,-3.78306 0,-1.24977 -0.236441,-2.43197 -0.202664,-1.21599 -0.675547,-2.16175 -0.439105,-0.94577 -1.148429,-1.4862 -0.675547,-0.57422 -1.621312,-0.57422 -0.371551,0 -0.945766,0.0676 -0.574214,0.0338 -1.182206,0.20266 -0.607992,0.13511 -1.14843,0.37155 -0.50666,0.23644 -0.810656,0.60799 l -3.783059,17.56422 z"
           style=""
           id="path8092" />
        <path
           d="m -42.114232,125.43242 q -2.02664,2.12797 -5.235487,3.61417 -3.208847,1.4862 -7.025685,2.12797 -0.405328,4.79638 -1.857754,8.647 -1.418648,3.85062 -3.614174,6.5528 -2.195527,2.70219 -5.032823,4.15461 -2.837296,1.45243 -6.012366,1.45243 -2.39819,0 -4.458608,-0.57421 -2.02664,-0.608 -3.512842,-1.89154 -1.452426,-1.31731 -2.263082,-3.37773 -0.844433,-2.09419 -0.844433,-5.0666 0,-2.02664 0.439105,-4.59372 0.405328,-2.60085 1.317316,-5.33681 0.945766,-2.73597 2.398191,-5.33682 1.486203,-2.63464 3.580397,-4.69505 2.127972,-2.06042 4.897714,-3.31018 2.769741,-1.28354 6.316361,-1.28354 8.883439,0 8.883439,11.04519 l 0,0.0675 q 0.168887,0.0676 0.303996,0.0676 0.168887,0 0.439105,0 1.215984,0 2.600855,-0.33778 1.418648,-0.37155 2.837296,-0.94576 1.418648,-0.57422 2.769741,-1.31732 1.351094,-0.77688 2.465746,-1.55375 l 0.607992,1.89153 z m -18.003319,5.94481 q -1.080875,-0.27022 -1.486203,-1.0471 -0.37155,-0.81066 -0.37155,-1.85775 0,-1.45243 0.574214,-2.36442 0.607992,-0.94576 1.587535,-1.38487 -0.06755,-1.11465 -0.236441,-1.85775 -0.168887,-0.77688 -0.472883,-1.24976 -0.303996,-0.50666 -0.776879,-0.70933 -0.439105,-0.20266 -1.148429,-0.20266 -1.249761,0 -2.398191,0.97954 -1.148429,0.94577 -2.195527,2.5333 -1.01332,1.58754 -1.89153,3.64795 -0.844434,2.02664 -1.452426,4.18839 -0.607992,2.16175 -0.945765,4.28972 -0.337773,2.0942 -0.337773,3.81684 0,1.72265 0.168886,2.80352 0.202664,1.08088 0.607992,1.72265 0.439106,0.60799 1.114652,0.84443 0.675547,0.23644 1.65509,0.23644 1.249761,0 2.499523,-1.11465 1.283538,-1.11465 2.364413,-3.03996 1.080875,-1.92531 1.891531,-4.55994 0.844433,-2.63463 1.249761,-5.67459 z"
           style=""
           id="path8095" />
        <path
           d="m -12.761732,139.3149 q -1.452426,4.25594 -3.141292,6.78924 -1.65509,2.5333 -3.377734,3.8844 -1.688866,1.31731 -3.343956,1.72264 -1.621312,0.40533 -3.006183,0.40533 -2.296858,0 -3.850616,-0.64177 -1.553757,-0.67555 -2.499522,-1.75642 -0.945766,-1.11465 -1.384871,-2.49952 -0.405328,-1.41865 -0.405328,-2.90485 0,-1.75643 0.472883,-4.08706 0.50666,-2.36442 1.080874,-4.83016 0.574215,-2.46575 1.047098,-4.7626 0.50666,-2.29686 0.50666,-3.95195 0,-3.54662 -2.499523,-3.54662 -0.945765,0 -1.756421,0.50666 -0.810656,0.50666 -1.486203,1.38487 -0.675547,0.84443 -1.215984,2.02664 -0.540437,1.14843 -0.945765,2.46574 l -4.69505,22.19171 -9.964313,0 7.329681,-34.58799 9.964314,0 -0.743102,3.5804 q 1.114652,-1.24976 2.195527,-1.99286 1.114652,-0.77688 2.161749,-1.18221 1.047098,-0.40533 1.959086,-0.54044 0.945765,-0.13511 1.756421,-0.13511 1.655089,0 3.073737,0.43911 1.418649,0.4391 2.431969,1.38487 1.047097,0.94576 1.621312,2.43197 0.574214,1.4862 0.574214,3.54662 0,1.38487 -0.270218,3.00618 -0.236442,1.58753 -0.607992,3.2764 -0.371551,1.65509 -0.810656,3.31018 -0.405328,1.65509 -0.776879,3.17507 -0.371551,1.51998 -0.641769,2.8373 -0.236442,1.28353 -0.236442,2.26308 0,1.28354 0.574215,2.09419 0.607992,0.81066 2.195527,0.81066 1.114652,0 1.959085,-0.43911 0.844433,-0.4391 1.51998,-1.24976 0.675547,-0.81066 1.215984,-1.92531 0.574215,-1.14843 1.114652,-2.49952 l 2.904851,0 z"
           style=""
           id="path8097" />
        <path
           d="m 22.231584,139.3149 q -1.452425,4.25594 -3.141292,6.78924 -1.655089,2.5333 -3.377733,3.8844 -1.688867,1.31731 -3.343956,1.72264 -1.621312,0.40533 -3.0061829,0.40533 -2.2968587,0 -3.850616,-0.64177 -1.5537574,-0.67555 -2.4995227,-1.75642 -0.9457654,-1.11465 -1.3848707,-2.49952 -0.405328,-1.41865 -0.405328,-2.90485 0,-1.75643 0.4728827,-4.08706 0.50666,-2.36442 1.0808746,-4.83016 0.5742147,-2.46575 1.0470974,-4.7626 0.50666,-2.29686 0.50666,-3.95195 0,-3.54662 -2.4995227,-3.54662 -0.94576535,0 -1.75642136,0.50666 -0.81065601,0.50666 -1.48620264,1.38487 -0.6755467,0.84443 -1.2159841,2.02664 -0.5404373,1.14843 -0.9457653,2.46574 l -4.6950494,22.19171 -9.9643139,0 7.329682,-34.58799 9.96431333,0 -0.74310133,3.5804 q 1.114652,-1.24976 2.19552668,-1.99286 1.11465202,-0.77688 2.16174932,-1.18221 1.0470974,-0.40533 1.9590854,-0.54044 0.9457653,-0.13511 1.7564214,-0.13511 1.6550893,0 3.0737373,0.43911 1.4186479,0.4391 2.4319679,1.38487 1.047098,0.94576 1.621312,2.43197 0.574215,1.4862 0.574215,3.54662 0,1.38487 -0.270219,3.00618 -0.236441,1.58753 -0.607992,3.2764 -0.37155,1.65509 -0.810656,3.31018 -0.405328,1.65509 -0.776879,3.17507 -0.37155,1.51998 -0.641769,2.8373 -0.236441,1.28353 -0.236441,2.26308 0,1.28354 0.574214,2.09419 0.607993,0.81066 2.195527,0.81066 1.114652,0 1.959086,-0.43911 0.844433,-0.4391 1.51998,-1.24976 0.675546,-0.81066 1.215984,-1.92531 0.574214,-1.14843 1.114652,-2.49952 l 2.90485,0 z"
           style=""
           id="path8099" />
        <path
           d="m 36.485618,107.93576 q 0,1.14843 -0.439105,2.16175 -0.439106,0.97954 -1.215984,1.72264 -0.743102,0.70932 -1.756422,1.14843 -0.979542,0.40533 -2.127972,0.40533 -1.148429,0 -2.161749,-0.40533 -0.979543,-0.43911 -1.722644,-1.14843 -0.743101,-0.7431 -1.182207,-1.72264 -0.405328,-1.01332 -0.405328,-2.16175 0,-1.14843 0.405328,-2.12797 0.439106,-1.01333 1.182207,-1.75643 0.743101,-0.77688 1.722644,-1.21598 1.01332,-0.43911 2.161749,-0.43911 1.14843,0 2.127972,0.43911 1.01332,0.4391 1.756422,1.21598 0.776878,0.7431 1.215984,1.75643 0.439105,0.97954 0.439105,2.12797 z m 4.289721,31.37914 q -0.979542,2.80352 -2.195526,4.86394 -1.182207,2.06041 -2.499523,3.47906 -1.283539,1.41865 -2.668409,2.29686 -1.351094,0.87821 -2.634632,1.35109 -1.283539,0.47289 -2.465746,0.64177 -1.148429,0.16889 -2.060417,0.16889 -1.553757,0 -2.904851,-0.47288 -1.351093,-0.47289 -2.364413,-1.48621 -0.979543,-1.01332 -1.553758,-2.56707 -0.574214,-1.55376 -0.574214,-3.74929 0,-0.94576 0.135109,-2.06041 0.135109,-1.14843 0.405328,-2.46575 l 4.69505,-22.19171 9.964313,0 -4.965268,23.50903 q -0.168887,0.57421 -0.236441,1.14843 -0.03378,0.54043 -0.03378,1.08087 0,1.45243 0.675547,2.02664 0.675547,0.54044 2.127972,0.54044 1.01332,0 1.959085,-0.43911 0.979543,-0.47288 1.790199,-1.28354 0.810656,-0.81065 1.452425,-1.9253 0.64177,-1.14843 1.047098,-2.46575 l 2.90485,0 z"
           style=""
           id="path8101" />
        <path
           d="m 66.817664,139.3149 q -1.452425,2.43197 -3.343956,4.72883 -1.857753,2.29686 -4.222167,4.08705 -2.330636,1.7902 -5.201709,2.90485 -2.837296,1.08088 -6.248807,1.08088 -2.465745,0 -4.458608,-0.60799 -1.992863,-0.64177 -3.411511,-1.95909 -1.418648,-1.31731 -2.161749,-3.37773 -0.776879,-2.0942 -0.776879,-5.03282 0,-1.99287 0.405328,-4.59372 0.405328,-2.60086 1.283539,-5.33682 0.878211,-2.73596 2.330636,-5.3706 1.452425,-2.63463 3.512843,-4.69505 2.060417,-2.09419 4.830159,-3.34395 2.769741,-1.28354 6.316361,-1.28354 2.330636,0 3.783061,0.57421 1.486203,0.54044 2.330636,1.45243 0.878211,0.91199 1.182207,2.12797 0.337773,1.18221 0.337773,2.46575 0,3.00618 -1.317316,5.60703 -1.317316,2.56708 -3.54662,4.49239 -2.195526,1.92531 -5.0666,3.10751 -2.871073,1.18221 -5.978588,1.38488 -0.06755,0.77687 -0.135109,1.4862 -0.03378,0.67554 -0.03378,1.28354 0,1.75642 0.303996,2.90485 0.337774,1.11465 0.945766,1.75642 0.641769,0.64177 1.553757,0.91199 0.945766,0.23644 2.195527,0.23644 2.060417,0 3.715507,-0.54044 1.688866,-0.54044 3.141292,-1.4862 1.452425,-0.94577 2.735964,-2.22931 1.317316,-1.28353 2.634632,-2.73596 l 2.364413,0 z m -18.88153,-4.89771 q 1.959086,-0.13511 3.783062,-1.11466 1.823976,-0.97954 3.208847,-2.5333 1.38487,-1.58753 2.195526,-3.58039 0.844434,-2.02664 0.844434,-4.18839 0,-1.28354 -0.371551,-2.06042 -0.371551,-0.77688 -1.351093,-0.77688 -1.317316,0 -2.600855,1.28354 -1.249761,1.24976 -2.364413,3.2764 -1.114652,2.02664 -1.992863,4.59372 -0.844433,2.5333 -1.351094,5.10038 z"
           style=""
           id="path8103" />
        <path
           d="m 61.886181,151.71118 7.329681,-34.58799 9.964314,0 -0.878211,4.28972 q 0.911988,-0.81065 1.857754,-1.58753 0.945765,-0.77688 1.959085,-1.35109 1.047097,-0.608 2.161749,-0.97955 1.114652,-0.37155 2.364414,-0.37155 1.182206,0 2.060417,0.43911 0.911988,0.4391 1.51998,1.14843 0.607992,0.70932 0.911988,1.65509 0.303996,0.94576 0.303996,1.95908 0,0.91199 -0.303996,1.82398 -0.303996,0.87821 -0.945765,1.58753 -0.607992,0.70933 -1.553758,1.18221 -0.945765,0.4391 -2.195526,0.4391 -0.979543,0 -1.51998,-0.33777 -0.50666,-0.33777 -0.776879,-0.84443 -0.270219,-0.50666 -0.405328,-1.08088 -0.101332,-0.60799 -0.236441,-1.11465 -0.13511,-0.50666 -0.371551,-0.84443 -0.202664,-0.33778 -0.709324,-0.33778 -1.587535,0 -2.668409,0.74311 -1.080875,0.70932 -2.364414,1.89153 l -5.539483,26.27876 -9.964313,0 z"
           style=""
           id="path8105" />
        <path
           d="m 119.51031,139.3149 q -1.45243,2.43197 -3.34396,4.72883 -1.85775,2.29686 -4.22217,4.08705 -2.33063,1.7902 -5.20171,2.90485 -2.83729,1.08088 -6.2488,1.08088 -2.465748,0 -4.458611,-0.60799 -1.992862,-0.64177 -3.41151,-1.95909 -1.418648,-1.31731 -2.16175,-3.37773 -0.776878,-2.0942 -0.776878,-5.03282 0,-1.99287 0.405328,-4.59372 0.405328,-2.60086 1.283538,-5.33682 0.878211,-2.73596 2.330636,-5.3706 1.452426,-2.63463 3.512843,-4.69505 2.060417,-2.09419 4.830154,-3.34395 2.76975,-1.28354 6.31637,-1.28354 2.33063,0 3.78306,0.57421 1.4862,0.54044 2.33063,1.45243 0.87821,0.91199 1.18221,2.12797 0.33777,1.18221 0.33777,2.46575 0,3.00618 -1.31731,5.60703 -1.31732,2.56708 -3.54662,4.49239 -2.19553,1.92531 -5.0666,3.10751 -2.87108,1.18221 -5.97859,1.38488 -0.0676,0.77687 -0.13511,1.4862 -0.03378,0.67554 -0.03378,1.28354 0,1.75642 0.303997,2.90485 0.33777,1.11465 0.94576,1.75642 0.64177,0.64177 1.55376,0.91199 0.94577,0.23644 2.19553,0.23644 2.06042,0 3.7155,-0.54044 1.68887,-0.54044 3.1413,-1.4862 1.45242,-0.94577 2.73596,-2.22931 1.31732,-1.28353 2.63463,-2.73596 l 2.36442,0 z m -18.88153,-4.89771 q 1.95908,-0.13511 3.78306,-1.11466 1.82397,-0.97954 3.20884,-2.5333 1.38488,-1.58753 2.19553,-3.58039 0.84443,-2.02664 0.84443,-4.18839 0,-1.28354 -0.37155,-2.06042 -0.37155,-0.77688 -1.35109,-0.77688 -1.31732,0 -2.60085,1.28354 -1.24977,1.24976 -2.36442,3.2764 -1.11465,2.02664 -1.99286,4.59372 -0.84443,2.5333 -1.35109,5.10038 z"
           style=""
           id="path8107" />
        <path
           d="m 114.57882,151.71118 7.32968,-34.58799 9.96432,0 -0.7431,3.5804 q 1.11465,-1.24976 2.19552,-1.99286 1.11466,-0.77688 2.16175,-1.18221 1.0471,-0.40533 1.95909,-0.54044 0.94576,-0.13511 1.75642,-0.13511 1.65509,0 3.07374,0.43911 1.41864,0.4391 2.43196,1.38487 1.0471,0.94576 1.62132,2.43197 0.57421,1.4862 0.57421,3.54662 0,1.38487 -0.27022,3.00618 -0.23644,1.58753 -0.60799,3.2764 -0.37155,1.65509 -0.81066,3.31018 -0.40532,1.65509 -0.77687,3.17507 -0.37155,1.51998 -0.64177,2.8373 -0.23644,1.28353 -0.23644,2.26308 0,1.28354 0.57421,2.09419 0.60799,0.81066 2.19553,0.81066 1.72264,0 2.29686,-0.43911 -0.23645,1.89153 -0.94577,3.24263 -0.70932,1.31731 -1.72264,2.19552 -1.01332,0.87821 -2.29686,1.28354 -1.28354,0.40533 -2.63463,0.40533 -1.99287,0 -3.34396,-0.64177 -1.35109,-0.67555 -2.16175,-1.75642 -0.81066,-1.11465 -1.14843,-2.49952 -0.33777,-1.41865 -0.33777,-2.90485 0,-1.75643 0.47288,-4.08706 0.50666,-2.36442 1.08087,-4.83016 0.57422,-2.46575 1.0471,-4.7626 0.50666,-2.29686 0.50666,-3.95195 0,-3.54662 -2.49952,-3.54662 -0.94577,0 -1.75642,0.50666 -0.81066,0.50666 -1.4862,1.38487 -0.67555,0.84443 -1.21599,2.02664 -0.54044,1.14843 -0.94576,2.46574 l -4.69505,22.19171 -9.96432,0 z"
           style=""
           id="path8109" />
      </g>
    </g>
  </g>
</svg>
